<svg width="671" height="231" viewBox="0 0 671 231" fill="none" xmlns="http://www.w3.org/2000/svg">
<path d="M270.45 174.933H284.7L249.16 126.243L253.47 125.273C268 122.013 277.03 110.653 277.03 95.6426C277.03 89.4426 275.41 77.9526 264.53 70.6526C257.79 66.1126 249.63 64.3426 235.43 64.3426H217.56V174.943H229.57V127.303H237.12L270.45 174.943V174.933ZM229.57 74.9526H238.57C261.01 74.9526 265.72 86.3026 265.72 95.8226C265.72 109.543 255.37 117.743 238.04 117.743H229.56V74.9526H229.57Z" fill="#0C0C0C"/>
<path d="M370.65 146.843L382.86 174.933H395.69L344.95 61.5826L291.64 174.933H304.4L317.14 146.843H370.64H370.65ZM344.37 86.4526L366.03 135.883H321.84L344.37 86.4526Z" fill="#0C0C0C"/>
<path d="M454.58 120.183V130.793H483.87L483.53 133.993C482.65 142.343 479.17 149.373 472.9 155.483C465.14 163.063 456.23 166.603 444.88 166.603C431.81 166.603 421.59 162.483 413.63 153.993C405.48 145.283 400.8 133.053 400.8 120.423C400.8 106.993 405.75 94.0326 414.04 85.7426C419.92 79.8626 430.38 72.8526 446.8 72.8526C455.46 72.8526 462.68 74.6426 468.87 78.3226C473.51 80.9326 478.4 85.2326 482.31 90.1026L491.83 83.4026C488.69 79.0926 483.56 73.7226 475.56 69.2026C467.52 64.7226 457.24 62.2426 446.62 62.2426C430.69 62.2426 415.09 68.4426 404.89 78.8226C394.81 88.9126 388.8 104.383 388.8 120.243C388.8 136.103 394.65 151.263 405.26 162.203C415.44 172.723 426.67 177.203 442.79 177.203C458.91 177.203 470.67 172.623 480.38 163.193C490.73 153.163 496.37 138.323 496.76 120.183H454.59H454.58Z" fill="#0C0C0C"/>
<path d="M567.35 146.843L579.56 174.933H592.39L541.65 61.5826L488.34 174.933H501.1L513.84 146.843H567.34H567.35ZM541.07 86.4526L562.73 135.883H518.54L541.07 86.4526Z" fill="#0C0C0C"/>
<path d="M604.98 164.583C608.01 164.583 610.49 167.063 610.49 170.093C610.49 173.123 608.01 175.603 604.98 175.603C601.95 175.603 599.47 173.123 599.47 170.093C599.47 167.063 601.95 164.583 604.98 164.583Z" fill="#0C0C0C"/>
<path d="M644.83 135.843H653.83V174.503H644.83V170.463C640.88 175.053 636.02 175.693 633.26 175.693C621.32 175.693 614.53 165.773 614.53 155.123C614.53 142.543 623.16 134.833 633.35 134.833C636.2 134.833 641.15 135.563 644.83 140.343V135.843ZM623.72 155.303C623.72 162.003 627.94 167.603 634.46 167.603C640.15 167.603 645.39 163.473 645.39 155.393C645.39 147.313 640.15 142.903 634.46 142.903C627.94 142.903 623.72 148.413 623.72 155.293V155.303Z" fill="#0C0C0C"/>
<path d="M664.58 119.863C667.89 119.863 670.36 122.343 670.36 125.653C670.36 128.963 667.88 131.433 664.58 131.433C661.28 131.433 658.8 128.953 658.8 125.653C658.8 122.353 661.28 119.863 664.58 119.863ZM669.08 135.843V174.503H660.08V135.843H669.08Z" fill="#0C0C0C"/>
<path d="M179.58 193.693C183.06 189.923 186.28 185.923 189.24 181.723C181.81 158.073 169 136.323 151.38 117.993C169.36 98.1226 182.3 74.8026 189.66 49.6026C186.68 45.3126 183.42 41.2326 179.91 37.4026C173.75 63.8326 161.08 88.3126 142.68 108.883C115.89 78.9226 101.22 40.6726 101.18 0.172598C97.46 -0.0274025 93.69 -0.0574025 89.89 0.102598C89.4 0.122598 88.92 0.172598 88.44 0.202598C88.39 40.6926 73.73 78.9326 46.94 108.883C28.56 88.3526 15.9 63.9226 9.74 37.5426C6.22 41.3926 2.98 45.4826 0 49.7726C7.37 74.9126 20.3 98.1726 38.23 117.993C20.65 136.273 7.87 157.973 0.43 181.553C3.38 185.763 6.6 189.763 10.08 193.533C16.36 168.773 28.9 145.963 46.94 127.073C73.69 155.093 88.4 191.683 88.44 230.553C92.22 230.763 96.05 230.793 99.91 230.623C100.34 230.603 100.76 230.563 101.19 230.533C101.24 191.673 115.94 155.083 142.69 127.063C160.77 145.993 173.32 168.863 179.59 193.683L179.58 193.693ZM94.8 185.993C87.61 160.693 74.3 137.423 55.63 117.993C74.32 97.3326 87.62 72.9426 94.8 46.5826C101.98 72.9426 115.28 97.3326 133.98 117.993C115.3 137.423 102 160.693 94.8 185.993Z" fill="url(#paint0_linear_2001_1614)"/>
<defs>
<linearGradient id="paint0_linear_2001_1614" x1="-25.34" y1="235.623" x2="191.96" y2="18.3126" gradientUnits="userSpaceOnUse">
<stop offset="0.258305" stop-color="#5AE7F4"/>
<stop offset="0.369544" stop-color="#565AFF"/>
<stop offset="0.560579" stop-color="#190FDB"/>
<stop offset="0.840009" stop-color="#F46844"/>
</linearGradient>
</defs>
</svg>
